<?xml version="1.0" encoding="UTF-8" standalone="no"?><!DOCTYPE svg PUBLIC "-//W3C//DTD SVG 1.1//EN" "http://www.w3.org/Graphics/SVG/1.1/DTD/svg11.dtd"><svg width="100%" height="100%" viewBox="0 0 1042 380" version="1.1" xmlns="http://www.w3.org/2000/svg" xmlns:xlink="http://www.w3.org/1999/xlink" xml:space="preserve" xmlns:serif="http://www.serif.com/" style="fill-rule:evenodd;clip-rule:evenodd;stroke-linejoin:round;stroke-miterlimit:1.41421;"><g><g><g><g><path d="M332.821,139.753l24.123,-9.723l252.694,94.972l378.515,0l0,154.304l-866.841,0l0,-63.268l0,-176.285l211.509,0Z"/><path d="M231.102,348.485l-31.381,0l0,-119.472l50.338,0c24.213,0 43.966,19.753 43.966,43.966c0,24.053 -19.594,43.806 -43.329,43.806l-19.594,0l0,31.7Zm149.261,-93.507l-42.851,0l0,19.434l37.913,0l0,26.444l-37.913,0l0,21.982l42.851,0l0,25.647l-74.232,0l0,-119.472l74.232,0l0,25.965Zm486.332,-8.602c-10.832,-10.832 -25.647,-17.363 -42.054,-17.363c-32.975,0 -59.736,26.762 -59.736,59.736c0,32.974 26.761,59.736 59.736,59.736c16.567,0 31.54,-6.85 42.373,-17.682l-22.302,-21.983c-4.938,5.098 -11.947,7.965 -20.071,7.965c-16.249,0 -28.036,-11.788 -28.036,-28.036c0,-16.248 11.787,-28.036 28.036,-28.036c8.124,0 15.133,2.867 20.071,7.805l21.983,-22.142Zm-247.547,0c-10.832,-10.832 -25.646,-17.363 -42.054,-17.363c-32.974,0 -59.736,26.762 -59.736,59.736c0,32.974 26.762,59.736 59.736,59.736c16.567,0 31.541,-6.85 42.373,-17.682l-22.301,-21.983c-4.939,5.098 -11.948,7.965 -20.072,7.965c-16.248,0 -28.036,-11.788 -28.036,-28.036c0,-16.248 11.788,-28.036 28.036,-28.036c8.124,0 15.133,2.867 20.072,7.805l21.982,-22.142Zm14.656,42.532c0,32.975 26.602,59.577 59.576,59.577c32.975,0 59.737,-26.602 59.737,-59.577c0,-32.974 -26.762,-59.895 -59.737,-59.895c-32.974,0 -59.576,26.921 -59.576,59.895Zm283.706,59.577l-31.381,0l0,-119.472l31.381,0l0,40.302l40.143,-40.302l43.966,0l-54.479,54.639l64.674,64.833l-44.284,0l-42.533,-42.373l-7.487,7.647l0,34.726Zm-401.267,0l-31.381,0l-7.328,-15.611l-48.904,0l-7.168,15.611l-31.382,0l55.754,-119.472l14.177,0l56.232,119.472Zm205.652,-59.736c0,15.611 -12.744,28.514 -28.515,28.514c-15.611,0 -28.354,-12.903 -28.354,-28.514c0,-15.77 12.743,-28.514 28.354,-28.514c15.771,0 28.515,12.744 28.515,28.514Zm-256.627,17.682l-12.106,-26.284l-12.266,26.284l24.372,0Zm-214.731,-50.975l-19.435,0l0,34.249l19.435,0c9.558,-0.001 17.204,-7.487 17.204,-17.045c0,-9.557 -7.646,-17.204 -17.204,-17.204Zm-29.117,-66.896l29.044,0l0,18.678l-50.235,0l0,-70.748l21.191,0l0,52.07Zm62.067,18.678l-21.191,0l0,-70.748l21.191,0l0,70.748Zm271.824,-55.372l-28.936,0l0,11.508l25.602,0l0,15.659l-25.602,0l0,13.017l28.936,0l0,15.188l-50.127,0l0,-70.748l50.127,0l0,15.376Zm-91.11,36.694l29.043,0l0,18.678l-50.234,0l0,-70.748l21.191,0l0,52.07Zm-105.847,-33.676l-21.406,0l0,52.354l-21.191,0l0,-52.354l-20.975,0l0,-18.488l63.572,0l0,18.488Zm73.254,0l-21.406,0l0,52.354l-21.191,0l0,-52.354l-20.976,0l0,-18.488l63.573,0l0,18.488Z" style="fill:#fff;stroke:#000;stroke-width:60px;"/></g><text x="198.74px" y="203.426px" style="font-family:'BigJohn', 'Big John';font-size:93.736px;fill:#fff;">L<tspan x="259.454px 292.269px 363.993px 435.717px 496.431px " y="203.426px 203.426px 203.426px 203.426px 203.426px ">ITTLE</tspan></text><text x="187.615px" y="351.308px" style="font-family:'BigJohn', 'Big John';font-size:159.296px;fill:#fff;">P<tspan x="294.025px 385.939px 508.119px 624.087px 755.665px 874.023px " y="351.308px 351.308px 351.308px 351.308px 351.308px 351.308px ">EACOCK</tspan></text></g></g><g><g><g><path d="M68.676,346.67c-7.869,-4.226 -14.994,-9.89 -20.819,-16.875c-8.363,-10.029 -13.924,-22.433 -15.935,-35.241c0,0 -1.329,-6.055 -1.687,-11.124c-2.065,-29.283 13.14,-57.996 33.186,-79.246l-52.37,-29.34c-3.112,-2.167 -4.116,-2.528 -6.503,-5.546c-6.14,-7.763 -6.123,-20.028 0.418,-27.806c2.476,-2.945 3.491,-3.275 6.666,-5.348c0,0 12.306,-6.362 12.306,-6.362c0,0 0.957,-1.399 1.223,-2.836c0,0 0.363,-5.721 1.354,-10.982c5.793,-30.765 29.444,-57.568 59.977,-66.839c9.012,-2.737 18.479,-3.957 27.879,-3.684c-0.086,-0.331 -0.086,-0.33 -0.168,-0.661c-4,-16.738 5.506,-35.661 21.686,-42.168c2.848,-1.145 5.84,-1.926 8.885,-2.318c1.327,-0.171 2.664,-0.259 4.006,-0.29c0.45,-0.004 0.45,-0.004 0.9,-0.004c1.664,0.025 2.176,0.071 3.166,0.166c11.348,1.095 21.939,7.811 27.801,17.783c0,0 7.24,-0.363 12.873,1.216c14.806,4.15 26.067,18.432 26.427,34.242c0,0 6.81,2.981 11.22,7.055c10.201,9.424 14.185,24.983 9.763,38.15c-5.568,16.577 -24.104,27.658 -41.858,23.875c-0.525,-0.112 -1.366,-0.857 -1.243,0.253c3.829,36.753 -17.852,74.936 -53.41,89.548c2.833,2.447 5.511,5.181 8.023,7.946c16.071,17.692 26.864,40.056 34.275,62.66c3.853,11.752 7.573,25.02 0.023,35.623c-3.752,5.267 -9.83,8.798 -16.264,9.414c-4.008,0.384 -2.104,0.088 -2.104,0.088l-0.868,-0.007c-0.172,-0.006 -0.347,-0.01 -0.347,-0.01c0,0 -2.09,-0.205 -0.341,0.004c-0.272,-0.006 -0.543,-0.015 -0.814,-0.024c-1.803,-0.071 -3.603,-0.207 -5.396,-0.408c-5.703,7.398 -12.793,13.757 -20.916,18.537c0.663,1.279 2.459,5.003 2.873,8.489c1.405,11.848 -8.163,23.956 -20.786,24.566c-0.471,0.023 -0.589,0.02 -1.061,0.026l-32.714,0c-1.632,-0.02 -1.906,-0.07 -2.648,-0.16c-13.505,-1.638 -23.454,-17.768 -17.331,-31.05c0.218,-0.474 0.308,-0.7 0.653,-1.312Zm19.464,10.293l-0.11,0.184l-0.028,0.045c0.001,-0.002 0.048,-0.076 0.138,-0.229Zm32.331,-0.183c0.161,0.278 0.243,0.409 0.245,0.412c-0.084,-0.136 -0.165,-0.274 -0.245,-0.412l0,0Zm47.033,-28.768c0.37,0.011 0.727,0.023 -0.688,-0.006l0.688,0.006Zm-17.181,-25.534l-0.114,-0.05l-0.023,0.058l0.103,0.046l0.01,0.004l0.012,-0.028l0.012,-0.03Zm-118.405,-7.951c0,0 0.713,2.817 -0.021,-0.146c0,0 0.013,0.093 0.021,0.146Zm20.524,-23.348c-0.697,6.12 -0.61,12.428 0.91,18.314c-0.726,-2.837 -1.935,-9.311 -0.91,-18.314Zm34.312,-59.134c-17.211,15.92 -31.65,35.747 -34.312,59.134c1.664,-14.624 9.221,-35.921 34.312,-59.134Zm-7.629,0.343c0.596,0.229 2.592,1.027 0.141,0.042c0,0 -0.397,-0.188 -0.141,-0.042Zm7.706,-0.414l-0.037,0.034l0.24,-0.222l-0.203,0.188Zm7.009,-9.063c-0.798,3.413 -3.616,5.957 -6.272,8.386c1.365,-1.247 2.781,-2.499 4.25,-3.755c1.054,-1.697 1.696,-3.237 2.022,-4.631Zm23.221,-3.654c-1.721,1.71 -3.034,3.835 -3.415,6.451c0.094,-0.053 0.187,-0.105 0.282,-0.155c0.365,-2.326 1.371,-4.538 3.133,-6.296Zm-28.905,-6.968c0.02,0.013 7.145,4.364 5.684,10.622c1.341,-5.744 -2.676,-9.001 -5.248,-10.453c-0.145,-0.056 -0.291,-0.112 -0.436,-0.169Zm28.96,6.914c0,0 0,0 0,0Zm5.27,-3.382c-0.241,0.04 -0.482,0.079 -0.724,0.116c-0.128,0.069 -0.255,0.139 -0.383,0.211c0.372,-0.155 0.743,-0.268 1.107,-0.327Zm-100.582,-40.17l12.294,-6.411l-0.099,-0.003l-12.195,6.414Zm152.15,-6.203l-0.004,0.014l0.002,-0.005l0.002,-0.009Zm-128.585,-13.302c-2.056,5.597 -5.896,10.672 -11.37,13.091c6.395,-2.796 9.696,-8.519 11.37,-13.091Zm128.66,13.031c0.015,-0.055 0.03,-0.11 0.045,-0.164l-0.045,0.164Zm-128.616,-13.15l-0.037,0.1l0.024,-0.064l0.013,-0.036Zm1.419,-5.288c-0.272,1.304 -0.759,3.435 -1.363,5.131c0.755,-2.122 1.159,-3.972 1.363,-5.131Zm-21.744,-1.616c-1.113,0.535 0.206,-0.097 0,0Zm146.221,-22.065c0,0 0,0 0,0Zm-4.985,-9.544l26.074,-10.497l0,-0.106l-26.074,10.603Zm53.527,-5.291l-0.002,0.007l0.001,-0.004l0.001,-0.003Zm0.042,-0.107c0,0 0,0 0,0Zm-58.487,-1.358c0,0 0,0 0,0Zm18.17,-23.145l-18.528,22.718l18.528,-22.718Zm-26.141,15.099c0,0 0,0 0,0Zm-0.767,-0.64c0,0 0,0 0,0Zm-79.393,-2.027l-0.007,0.006l0.011,-0.009l-0.004,0.003Zm0.396,-0.29l-0.006,0.004l0.011,-0.008l-0.005,0.004Zm78.558,-29.622c0,0 -5.203,27.793 -5.203,27.793l5.203,-27.793l0,0Zm54.845,22.735c0,0 0,0 0,0Zm-27.261,-5.185c1.228,0.36 1.38,0.34 2.044,0.429c-0.533,-0.072 -1.069,-0.175 -1.603,-0.31c-0.148,-0.037 -0.295,-0.077 -0.441,-0.119Zm18.015,-15.525l0,0.001l0,-0.001l0,0Zm-0.014,-0.105c0,0 0,0 0,0Zm-62.449,-13.519l0.007,0.042l-0.012,-0.068l0.005,0.026Zm-0.016,-0.093l0.004,0.024l-0.018,-0.117l0.014,0.093Zm-0.029,-0.19l0.015,0.097l-0.017,-0.112l0.002,0.015Zm-0.013,-0.096l0,0.004l0,-0.006l0,0.002Zm27.264,-7.231c0,0 0,0 0,0Zm-0.052,-0.127l0.003,0.007l-0.002,-0.004l-0.001,-0.003Z"/></g></g><g><g><path d="M95.792,333.472c1.004,1.002 1.991,3.687 -0.984,10.559c-4.467,10.319 -6.806,14.046 -6.806,14.046l15.466,0l2.654,0l14.594,0c0,0 -2.339,-3.727 -6.806,-14.046c-2.975,-6.872 -1.988,-9.557 -0.984,-10.559l-17.134,0Z" style="fill:#67fccc;"/><path d="M113.368,318.414c9.007,0.396 16.603,9.581 14.099,18.99c1.707,4.294 3.712,8.648 5.985,12.618c0.2,0.349 -0.187,-0.309 0.312,0.527c0,0 2.906,5.539 1.609,11.005c-1.515,6.388 -7.584,11.388 -14.219,11.581c-0.146,0.004 -0.292,0.004 -0.438,0.006l-32.714,0c-8.207,-0.119 -15.523,-7.605 -15.038,-15.938c0.101,-1.751 0.511,-3.481 1.206,-5.091c0.243,-0.563 0.298,-0.746 1.01,-1.941c0.294,-0.494 0.284,-0.5 0.419,-0.747c2.102,-3.874 3.969,-7.892 5.629,-11.96c0,0 -0.783,-3.536 -0.296,-6.464c1.131,-6.805 7.417,-12.381 14.418,-12.586c0.147,-0.004 0.294,-0.004 0.442,-0.006l17.134,0c0.148,0.002 0.295,0.004 0.442,0.006Zm-17.576,15.058c0.358,0.368 0.346,0.412 0.454,0.602c1.918,3.379 -0.329,7.426 -1.85,10.905c-1.941,4.438 -3.873,8.913 -6.366,13.054l-0.028,0.044l32.714,0c-0.084,-0.136 -0.165,-0.274 -0.245,-0.412c-3.95,-6.848 -8.822,-14.131 -8.539,-21.417c0.047,-1.218 0.994,-2.776 0.994,-2.776c-5.711,0 -11.423,0 -17.134,0Zm27.92,10.516c0.366,-0.376 0.094,-0.1 0,0Zm-38.8,-0.097c0,0 -0.071,-0.076 0,0Z" style="fill-rule:nonzero;"/><path d="M147.026,78.812l5.203,-27.793c5.171,-1.063 9.547,-4.978 10.929,-10.435c1.925,-7.603 -2.685,-15.337 -10.287,-17.262c-7.602,-1.924 -15.337,2.685 -17.261,10.288c-1.537,6.07 1.093,12.225 6.086,15.439l-4.575,24.445c-7.812,-3.353 -16.415,-5.21 -25.449,-5.21c-34.844,0 -63.287,27.624 -64.606,62.147l-0.048,-0.079c0,0 -1.421,14.7 -13.019,19.77l0.099,0.004l-12.294,6.411l53.662,30.063l-0.018,-0.115c4.074,2.763 8.48,5.074 13.144,6.859c3.196,1.804 8.625,6.397 3.226,15.084c-47.243,40.422 -40.116,76.054 -38.317,82.509c3.155,24.067 23.31,42.814 47.998,43.775c0.661,0.026 1.325,0.039 1.992,0.039c27.827,0 50.42,-22.592 50.42,-50.419c0,-10.375 -13.651,-27.948 -26.747,-42.419l8.579,-5.855c-31.591,-23.431 -22.764,-34.555 -14.081,-39.235c30.947,-4.809 54.664,-31.599 54.664,-63.885c0,-8.859 -1.786,-17.304 -5.017,-24.994l25.093,-10.103c1.774,1.837 4.065,3.218 6.72,3.89c7.602,1.924 15.336,-2.685 17.261,-10.287c1.924,-7.603 -2.685,-15.337 -10.287,-17.261c-7.602,-1.925 -15.337,2.685 -17.261,10.287c-0.291,1.148 -0.433,2.299 -0.437,3.433l-26.074,10.497c-1.595,-2.518 -3.359,-4.917 -5.276,-7.183l18.528,-22.719c0.223,0.069 0.449,0.132 0.678,0.19c7.602,1.924 15.336,-2.685 17.261,-10.287c1.924,-7.602 -2.685,-15.337 -10.287,-17.261c-7.602,-1.925 -15.337,2.685 -17.261,10.287c-0.916,3.615 -0.353,7.261 1.307,10.297l-17.839,21.874c-2.032,-1.723 -4.172,-3.322 -6.409,-4.786Z" style="fill:#67fccc;"/><path d="M149.622,7.822c11.701,0.171 22.707,7.694 27.051,18.685c1.052,-0.262 1.11,-0.259 1.578,-0.348c17.518,-3.354 36.745,12.203 34.593,31.917c-0.193,1.765 0.584,1.413 0.584,1.413c11.656,2.873 20.89,13.283 22.262,25.099c1.2,10.338 -3.592,21.124 -12.047,27.172c-8.229,5.885 -19.495,7.061 -28.865,2.974l-5.037,2.028c0.05,0.24 0.098,0.481 0.147,0.722c4.81,24.831 -2.894,51.75 -20.21,70.118c-10.59,11.234 -24.54,19.284 -39.519,22.892c0,0 1.425,1.851 2.48,2.997c3.609,3.92 7.806,7.29 12.095,10.48l2.595,2.459c2.628,4.062 4.2,8.847 2.978,13.474c-0.466,1.764 -1.691,3.854 -1.691,3.854c10.152,12.531 20.644,26.207 20.347,41.837c-0.362,18.972 -9.44,37.531 -24.123,49.504c-22.512,18.357 -57.464,19.488 -81.295,1.112c-13.238,-10.207 -22.331,-25.713 -24.826,-42.216c0,0 -1.302,-5.92 -1.601,-10.717c-1.872,-30.019 15.973,-59.031 37.528,-79.642c0,0 -3.496,-1.977 -6.23,-3.74l-0.313,-0.153l-53.662,-30.064c-2.554,-1.863 -3.443,-2.16 -5.219,-4.858c-3.276,-4.976 -3.22,-11.996 0.254,-16.943c1.857,-2.643 2.754,-2.914 5.363,-4.699c0,0 12.302,-6.376 12.302,-6.376c0,0 2.114,-1.06 3.176,-2.953c0.886,-1.578 1.446,-3.26 1.719,-5.083c0.038,-0.252 -0.092,1.409 0.146,-1.884c2.167,-27.58 19.617,-53.352 44.391,-65.527c14.994,-7.368 32.282,-9.788 48.796,-6.959c0,0 0.286,-0.107 -0.56,-1.4c-7.416,-11.584 -5.41,-28.15 4.813,-37.495c5.213,-4.765 12.171,-7.515 19.273,-7.677c0.364,-0.004 0.363,-0.004 0.727,-0.003Zm-0.477,15.065c-8.028,0.183 -15.066,8.133 -13.81,16.346c0.608,3.975 2.964,7.606 6.361,9.816l-4.575,24.445c-20.344,-8.656 -45.553,-5.999 -63.663,7.302c-15.627,11.477 -25.599,30.444 -26.392,49.635c0,0 -0.659,3.688 -1.597,6.325c-2.03,5.705 -5.907,10.908 -11.47,13.366c0,0 -12.195,6.415 -12.195,6.415c0,0 53.644,29.948 53.644,29.948c3.965,2.679 8.239,4.933 12.708,6.69c0,0 7.148,4.355 5.684,10.621c-0.852,3.643 -4.004,6.296 -6.806,8.876c-17.334,15.964 -31.916,35.879 -34.592,59.393c-0.719,6.314 -0.604,12.828 1.059,18.872c2.552,19.052 16.83,35.971 35.201,41.607c15.368,4.714 32.94,1.518 45.671,-8.366c12.233,-9.498 20.157,-24.571 19.528,-40.338c-0.323,-8.091 -5.739,-15.504 -10.675,-22.372c-4.92,-6.845 -10.405,-13.287 -16.062,-19.555l8.579,-5.855c-0.366,-0.272 -0.731,-0.545 -1.094,-0.819c-7.61,-5.763 -15.526,-12.033 -19.533,-20.658c-2.152,-4.631 -1.896,-10.662 2,-14.492c1.543,-1.518 3.483,-3.089 5.27,-3.383c24.081,-4.093 45.087,-22.75 51.643,-46.643c3.794,-13.827 2.757,-28.971 -2.72,-42.119l25.093,-10.103c6.518,6.69 19.914,4.609 23.491,-4.839c3.153,-8.329 -3.472,-18.937 -12.819,-19.249c-7.475,-0.249 -14.554,6.222 -14.676,14.043c0,0 -26.074,10.604 -26.074,10.604c-1.494,-2.347 -3.14,-4.608 -4.918,-6.757l-0.358,-0.426l18.528,-22.719c1.448,0.434 1.577,0.405 2.281,0.5c8.54,1.151 17.228,-7.05 15.957,-16.06c-1.22,-8.645 -11.698,-14.744 -19.988,-10.941c-6.923,3.177 -10.326,12.345 -6.705,19.44l0.153,0.287l-17.839,21.874c-0.254,-0.215 -0.51,-0.428 -0.767,-0.64c-1.806,-1.478 -3.691,-2.863 -5.642,-4.146l5.203,-27.793c7.957,-1.671 13.558,-11.211 10.342,-19.21c-2.127,-5.287 -7.56,-8.983 -13.426,-8.922Zm-110.427,271.104c0.038,0.253 0.136,0.494 0.204,0.741c-0.1,-0.37 -0.247,-1.036 -0.204,-0.741Zm-0.024,-0.133c0,0 -0.192,-1.432 0,0Zm43.416,-86.868c0.372,0.143 1.664,0.655 0.021,0.002c0,0 -0.127,-0.063 -0.021,-0.002Z" style="fill-rule:nonzero;"/><path d="M124.903,215.69c30.421,17.396 54.18,89.199 47.996,88.325c0,0 -23.232,0.482 -31.884,-14.121c0,0 -3.764,7.185 -1.591,14.161c0,0 -19.17,-12.649 -17.928,-29.868c0,0 -6.259,14.338 -6.717,19.683c0,0 -22.102,-35.093 10.124,-78.18Z" style="fill:#67fccc;"/><path d="M125.281,199.271c0.662,0.03 0.828,0.026 1.487,0.102c1.234,0.141 2.452,0.422 3.623,0.837c7.797,2.765 14.179,9.213 20.09,15.797c18.51,20.618 30.973,47.275 37.775,73.171c0.317,1.208 0.614,2.422 0.882,3.643c1.783,8.126 1.709,17.449 -4.714,23.241c-3.118,2.812 -7.332,4.308 -11.491,4.389l-1.049,-0.017c-0.25,-0.004 -0.499,-0.011 -0.748,-0.017c-7.093,-0.235 -14.07,-1.466 -20.696,-3.781c0,0 0.332,-0.49 -1.542,0.834c-6.191,4.372 -14.731,3.336 -21.249,-1.679c-2.528,-1.945 -4.912,-4.068 -7.168,-6.337l-1.197,0.21c-0.652,0.169 -0.813,0.223 -1.476,0.348c-6.962,1.306 -14.2,-2.389 -17.832,-8.936c-15.834,-28.546 -9.208,-66.755 11.345,-94.644c0,0 1.205,-1.661 2.405,-2.776c2.551,-2.369 5.862,-3.891 9.323,-4.285c1.438,-0.163 1.774,-0.1 2.232,-0.1Zm47.367,121.169c0,0 0.806,-0.003 0,0Zm-0.764,-0.006c2.346,0.034 -1.783,-0.213 0,0Zm-47.169,-104.492c-16.207,21.861 -23.191,51.439 -11.147,75.697c0.558,1.123 1.023,3.304 1.313,1.423c1.056,-6.445 3.9,-12.558 6.544,-18.713c0,0 0.068,-1.258 0.017,1.041c-0.163,11.956 9.094,22.587 17.927,28.628c0,0 -0.376,-1.551 -0.501,-2.575c-0.481,-3.963 0.399,-8.098 2.147,-11.549c6.493,10.844 21.275,14.27 31.884,14.121c1.842,0.22 1.035,-2.488 0.85,-3.999c-0.045,-0.371 -0.099,-0.741 -0.158,-1.11c-2.459,-15.247 -9.224,-29.686 -16.472,-43.598c-8.04,-15.433 -17.813,-31.118 -31.86,-39.412c0,0 -0.205,-0.409 -0.544,0.046Zm50.128,71.766c-1.153,-0.138 -0.301,-0.03 0,0Zm-0.79,-0.074c-0.811,-0.061 -0.212,-0.011 0,0Zm-1.031,-0.037c0.001,0 0.001,-0.001 0,0Z" style="fill-rule:nonzero;"/></g><g><path d="M75.482,136.521c-1.414,6.38 0.358,13.327 5.317,18.286c7.718,7.718 20.25,7.718 27.968,0c4.959,-4.959 6.732,-11.906 5.317,-18.286l-38.602,0Z"/><path d="M115.984,129.222c5.696,0.382 9.376,8.149 5.128,12.644c-1.392,1.473 -3.402,2.292 -5.418,2.349l-43.008,0.191c-5.81,-0.112 -9.789,-8.097 -5.484,-12.651c1.391,-1.473 3.401,-2.292 5.417,-2.349l43.009,-0.191c0.119,0.002 0.237,0.004 0.356,0.007Z" style="fill-rule:nonzero;"/></g></g></g></g></svg>